HIERARCHY
ROOT joint_Root
{
	OFFSET 0.0 0.0 0.0
	CHANNELS 6 Xposition Yposition Zposition Zrotation Xrotation Yrotation 
	JOINT Hips
	{
		OFFSET -17.1583 93.1646 452.98
		CHANNELS 6 Xposition Yposition Zposition Zrotation Xrotation Yrotation 
		JOINT Spine
		{
			OFFSET 15.7357 0.0 0.0
			CHANNELS 6 Xposition Yposition Zposition Zrotation Xrotation Yrotation 
			JOINT Chest
			{
				OFFSET 8.98455 -0.406207 0.0
				CHANNELS 6 Xposition Yposition Zposition Zrotation Xrotation Yrotation 
				JOINT Neck
				{
					OFFSET 16.3773 0.0 0.0
					CHANNELS 6 Xposition Yposition Zposition Zrotation Xrotation Yrotation 
					JOINT Head
					{
						OFFSET 6.45672 0.0 0.0
						CHANNELS 6 Xposition Yposition Zposition Zrotation Xrotation Yrotation 
						End Site
						{
							OFFSET 0.0 0.0 0.0
						}
					}
				}
				JOINT Shoulder_L
				{
					OFFSET 12.9942 -0.242716 4.98039
					CHANNELS 6 Xposition Yposition Zposition Zrotation Xrotation Yrotation 
					JOINT UpperArm_L
					{
						OFFSET 5.34809 0.0 0.0
						CHANNELS 6 Xposition Yposition Zposition Zrotation Xrotation Yrotation 
						JOINT LowerArm_L
						{
							OFFSET 24.3286 1.87007e-05 0.0
							CHANNELS 6 Xposition Yposition Zposition Zrotation Xrotation Yrotation 
							JOINT Hand_L
							{
								OFFSET 22.2916 0.0 0.0
								CHANNELS 6 Xposition Yposition Zposition Zrotation Xrotation Yrotation 
								End Site
								{
									OFFSET 0.0 0.0 0.0
								}
							}
						}
					}
				}
				JOINT Shoulder_R
				{
					OFFSET 12.9945 -0.242716 -4.98039
					CHANNELS 6 Xposition Yposition Zposition Zrotation Xrotation Yrotation 
					JOINT UpperArm_R
					{
						OFFSET -5.34813 0.0 0.0
						CHANNELS 6 Xposition Yposition Zposition Zrotation Xrotation Yrotation 
						JOINT LowerArm_R
						{
							OFFSET -24.3289 0.000322201 0.0
							CHANNELS 6 Xposition Yposition Zposition Zrotation Xrotation Yrotation 
							JOINT Hand_R
							{
								OFFSET -22.2915 -0.000108084 0.0
								CHANNELS 6 Xposition Yposition Zposition Zrotation Xrotation Yrotation 
								End Site
								{
									OFFSET 0.0 0.0 0.0
								}
							}
						}
					}
				}
			}
		}
		JOINT UpperLeg_L
		{
			OFFSET -2.19248 -6.46944 0.0
			CHANNELS 6 Xposition Yposition Zposition Zrotation Xrotation Yrotation 
			JOINT LowerLeg_L
			{
				OFFSET 39.0811 0.0 -1.23785e-05
				CHANNELS 6 Xposition Yposition Zposition Zrotation Xrotation Yrotation 
				JOINT Foot_L
				{
					OFFSET 40.9854 0.0 -1.26872e-05
					CHANNELS 6 Xposition Yposition Zposition Zrotation Xrotation Yrotation 
					JOINT Toes_L
					{
						OFFSET 11.7543 0.0 0.0
						CHANNELS 6 Xposition Yposition Zposition Zrotation Xrotation Yrotation 
						End Site
						{
							OFFSET 0.0 0.0 0.0
						}
					}
				}
			}
		}
		JOINT UpperLeg_R
		{
			OFFSET -2.19251 6.46944 0.0
			CHANNELS 6 Xposition Yposition Zposition Zrotation Xrotation Yrotation 
			JOINT LowerLeg_R
			{
				OFFSET -39.0811 -0.00228153 -0.0401928
				CHANNELS 6 Xposition Yposition Zposition Zrotation Xrotation Yrotation 
				JOINT Foot_R
				{
					OFFSET -40.9854 0.0 0.0
					CHANNELS 6 Xposition Yposition Zposition Zrotation Xrotation Yrotation 
					JOINT Toes_R
					{
						OFFSET -11.7543 0.0 0.0
						CHANNELS 6 Xposition Yposition Zposition Zrotation Xrotation Yrotation 
						End Site
						{
							OFFSET 0.0 0.0 0.0
						}
					}
				}
			}
		}
	}
}
MOTION
Frames:	4
Frame Time:	0.0333333
0.000000 0.000000 0.000000 0.000000 0.000000 -0.000000 -2.336960 91.464400 1.335940 83.013600 3.184810 6.503590 15.735700 0.000005 -0.000001 62.956300 85.898200 -58.982600 8.984550 -0.406207 -0.000000 -0.306976 -4.008660 7.935000 16.377300 -0.000001 -0.000001 13.098800 0.326552 7.078690 6.456720 -0.000001 -0.000000 1.986510 0.577331 15.475600 12.994200 -0.242716 4.980390 -91.721700 4.885940 -70.561700 5.348090 -0.000007 -0.000001 -76.545500 -14.674100 -1.044950 24.328600 0.000019 0.000005 41.923700 -39.162500 -125.117000 22.291600 -0.000001 0.000005 51.662100 4.845210 10.453500 12.994500 -0.242716 -4.980390 87.529800 6.638940 -69.537700 -5.348130 -0.000001 -0.000004 -67.868400 -5.632240 -3.387930 -24.328900 0.000322 -0.000009 16.778600 -18.184600 -135.986000 -22.291500 -0.000108 -0.000004 63.151800 5.646140 -14.659300 -2.192480 -6.469440 -0.000000 -170.840000 3.405960 -1.768660 39.081100 -0.000007 -0.000012 0.486079 -0.830629 30.337400 40.985400 -0.000006 -0.000013 2.944320 12.520100 -79.264300 11.754300 -0.000000 0.000003 -0.000054 0.168525 -9.741490 -2.192510 6.469440 -0.000001 -170.227000 9.408520 -174.216000 -39.081100 -0.002282 -0.040193 0.142406 -0.456822 16.933000 -40.985400 0.000008 0.000006 4.558170 0.366123 -72.671900 -11.754300 -0.000006 -0.000006 -0.011013 0.278727 -5.247300
0.000000 0.000000 0.000000 0.000000 0.000000 -0.000000 -2.326880 91.471800 1.311310 83.036400 3.208320 6.460830 15.735700 0.000005 -0.000001 63.081400 85.887100 -59.112700 8.984550 -0.406207 -0.000000 -0.279438 -4.001460 7.925830 16.377300 -0.000001 -0.000001 13.082300 0.285515 7.075540 6.456720 -0.000001 -0.000000 1.951110 0.521259 15.482100 12.994200 -0.242716 4.980390 -91.731100 4.895120 -70.496700 5.348090 -0.000007 -0.000001 -76.500600 -14.694100 -1.059850 24.328600 0.000019 0.000005 41.912300 -39.083800 -125.082000 22.291600 -0.000001 0.000005 51.610200 4.850280 10.355400 12.994500 -0.242716 -4.980390 87.526400 6.657330 -69.563300 -5.348130 -0.000001 -0.000004 -67.864600 -5.663120 -3.410420 -24.328900 0.000322 -0.000009 16.665600 -18.058100 -135.998000 -22.291500 -0.000108 -0.000004 63.169200 5.646580 -14.697200 -2.192480 -6.469440 -0.000000 -170.873000 3.415990 -1.836450 39.081100 -0.000007 -0.000012 0.481934 -0.824178 30.318100 40.985400 -0.000006 -0.000013 2.933770 12.480200 -79.201800 11.754300 -0.000000 0.000003 -0.000113 0.169508 -9.701560 -2.192510 6.469440 -0.000001 -170.254000 9.412230 -174.277000 -39.081100 -0.002282 -0.040193 0.141685 -0.454496 16.931600 -40.985400 0.000008 0.000006 4.552280 0.377854 -72.644200 -11.754300 -0.000006 -0.000006 -0.010998 0.278616 -5.251870
0.000000 0.000000 0.000000 0.000000 0.000000 -0.000000 -2.323060 91.475600 1.304160 83.029200 3.228550 6.458590 15.735700 0.000005 -0.000001 63.427800 85.868900 -59.452000 8.984550 -0.406207 -0.000000 -0.225210 -3.971920 7.941870 16.377300 -0.000001 -0.000001 13.077500 0.258489 7.066010 6.456720 -0.000001 -0.000000 1.863460 0.468952 15.457500 12.994200 -0.242716 4.980390 -91.736500 4.922670 -70.542500 5.348090 -0.000007 -0.000001 -76.442100 -14.835700 -0.997902 24.328600 0.000019 0.000005 41.971700 -39.149300 -125.064000 22.291600 -0.000001 0.000005 51.589900 4.853390 10.295100 12.994500 -0.242716 -4.980390 87.515900 6.676480 -69.537700 -5.348130 -0.000001 -0.000004 -67.813900 -5.664490 -3.421700 -24.328900 0.000322 -0.000009 16.688400 -18.081600 -135.992000 -22.291500 -0.000108 -0.000004 63.191300 5.644450 -14.507400 -2.192480 -6.469440 -0.000000 -170.877000 3.483120 -1.824710 39.081100 -0.000007 -0.000012 0.481638 -0.824380 30.296700 40.985400 -0.000006 -0.000013 2.934890 12.473400 -79.207600 11.754300 -0.000000 0.000003 -0.000063 0.168680 -9.735180 -2.192510 6.469440 -0.000001 -170.235000 9.385130 -174.269000 -39.081100 -0.002282 -0.040193 0.142192 -0.457212 16.894800 -40.985400 0.000008 0.000006 4.542530 0.322126 -72.631300 -11.754300 -0.000006 -0.000006 -0.010780 0.277045 -5.316170
0.000000 0.000000 0.000000 0.000000 0.000000 -0.000000 -2.325280 91.483400 1.276690 83.041800 3.255660 6.395420 15.735700 0.000005 -0.000001 63.483900 85.867500 -59.503300 8.984550 -0.406207 -0.000000 -0.219125 -3.966040 7.951560 16.377300 -0.000001 -0.000001 13.097200 0.279148 7.043200 6.456720 -0.000001 -0.000000 1.757650 0.407688 15.425100 12.994200 -0.242716 4.980390 -91.752000 4.958220 -70.510900 5.348090 -0.000007 -0.000001 -76.380100 -14.909600 -0.993904 24.328600 0.000019 0.000005 41.913000 -39.132800 -125.110000 22.291600 -0.000001 0.000005 51.609400 4.853370 10.295400 12.994500 -0.242716 -4.980390 87.518700 6.658850 -69.509000 -5.348130 -0.000001 -0.000004 -67.838500 -5.689920 -3.418430 -24.328900 0.000322 -0.000009 16.757700 -18.144000 -135.962000 -22.291500 -0.000108 -0.000004 63.109200 5.644650 -14.526700 -2.192480 -6.469440 -0.000000 -170.893000 3.493380 -1.909150 39.081100 -0.000007 -0.000012 0.481753 -0.825137 30.279700 40.985400 -0.000006 -0.000013 2.924880 12.460300 -79.181800 11.754300 -0.000000 0.000003 -0.000030 0.168121 -9.757900 -2.192510 6.469440 -0.000001 -170.240000 9.401660 -174.350000 -39.081100 -0.002282 -0.040193 0.141554 -0.455512 16.880900 -40.985400 0.000008 0.000006 4.538230 0.310953 -72.602700 -11.754300 -0.000006 -0.000006 -0.010940 0.278203 -5.268780
